# xmcd
#
# Track frame offsets:
#	150
#	20202
#	41588
#	67950
#	86712
#	106778
#	131222
#	151398
#	175259
#	196862
#	229961
#	241370
#	269633
#	289421
#	321052
#
# Disc length: 4534
#
# Revision: 1
# Processed by: cddbd v1.5.1PL0 Copyright (c) Steve Scherf et al.
# Submitted via: ExactAudioCopy v0.95a5
# Normalized: r0:TDELIM( - )
#
DISCID=dc11b40f
DTITLE=Various Artist - Notodden Bluesfestival Vol. 3
DYEAR=2004
DGENRE=Blues
TTITLE0=The Fabulous Thunderbirds - Can't Tear It Up Enuff
TTITLE1=Sven Zetterberg and KnockOut Greg and Blue Weather - Easier Said Than Done
TTITLE2=Shemekia Copeland - Turn The Heat Up
TTITLE3=Clarence "Gatemouth" Brown and Gate's Express - Take Me Back Baby
TTITLE4=Bjørn Berge - Ramblin' On My Mnd
TTITLE5=Walter Trout and The Radicals - Through The Eyes Of Love
TTITLE6=Anson Funderburgh and The Rockets featuring Sam Myers - Change In My Pocket
TTITLE7=Walter Trout and The Radicals - I Thought I Heard The Devil
TTITLE8=Notodden Blues Band and Torhild Sivertsen - I'm Gonna Tear Your Playhouse Down
TTITLE9=Luther Allison - Move From The 'Hood
TTITLE10=Nine Below Zero - We Rock The House
TTITLE11=Chris Thomas King - Da Thrill Is Gone From Here
TTITLE12=Junior Watson - Promised Land
TTITLE13=Al Kooper and The Funky Faculty - Green Onions
TTITLE14=Eric Sardinas - Treat Me Right
EXTD=
EXTT0=
EXTT1=
EXTT2=
EXTT3=
EXTT4=
EXTT5=
EXTT6=
EXTT7=
EXTT8=
EXTT9=
EXTT10=
EXTT11=
EXTT12=
EXTT13=
EXTT14=
PLAYORDER=
